# Blender 3.3.11
# www.blender.org
mtllib icosahedron.mtl
o icosahedron.001
v 0.850651 -0.000000 0.525731
v 0.850651 0.000000 -0.525731
v 0.525731 0.850651 0.000000
v 0.525731 -0.850651 -0.000000
v -0.850651 0.000000 -0.525731
v -0.850651 -0.000000 0.525731
v -0.525731 0.850651 0.000000
v -0.525731 -0.850651 -0.000000
v 0.000000 0.525731 0.850651
v 0.000000 0.525731 -0.850651
v 0.000000 -0.525731 -0.850651
v 0.000000 -0.525731 0.850651
vn 0.9342 0.3568 -0.0000
vn 0.9342 -0.3568 -0.0000
vn -0.9342 0.3568 -0.0000
vn -0.9342 -0.3568 -0.0000
vn -0.0000 0.9342 0.3568
vn -0.0000 0.9342 -0.3568
vn 0.3568 -0.0000 -0.9342
vn -0.3568 -0.0000 -0.9342
vn -0.0000 -0.9342 -0.3568
vn -0.0000 -0.9342 0.3568
vn 0.3568 -0.0000 0.9342
vn -0.3568 -0.0000 0.9342
vn 0.5774 0.5774 -0.5774
vn 0.5774 0.5774 0.5774
vn -0.5774 0.5774 -0.5774
vn -0.5774 0.5774 0.5774
vn 0.5774 -0.5774 -0.5774
vn 0.5774 -0.5774 0.5774
vn -0.5774 -0.5774 -0.5774
vn -0.5774 -0.5774 0.5774
vt 0.495329 1.468320
vt -0.376039 -0.007383
vt 1.422914 -0.007383
vt 0.495329 1.468320
vt 1.422914 -0.007383
vt -0.376039 -0.007383
vt 0.495329 1.468320
vt -0.376039 -0.007383
vt 1.422914 -0.007383
vt 1.422914 -0.007383
vt -0.376039 -0.007383
vt 1.422914 -0.007383
vt 0.495329 1.468320
vt -0.376039 -0.007383
vt 0.495329 1.468320
vt 1.422914 -0.007383
vt -0.376039 -0.007383
vt 0.495329 1.468320
vt 1.422914 -0.007383
vt -0.376039 -0.007383
vt -0.376039 -0.007383
vt 0.495329 1.468320
vt 1.422914 -0.007383
vt -0.376039 -0.007383
vt 1.422914 -0.007383
vt 0.495329 1.468320
vt 1.422914 -0.007383
vt -0.376039 -0.007383
vt 0.495329 1.468320
vt -0.376039 -0.007383
vt 0.495329 1.468320
vt 1.422914 -0.007383
vt 1.422914 -0.007383
vt -0.376039 -0.007383
vt 0.495329 1.468320
s 0
usemtl Default_OBJ.001
f 1/2/1 2/5/1 3/7/1
f 1/2/2 4/10/2 2/4/2
f 5/14/3 6/16/3 7/18/3
f 6/17/4 5/12/4 8/22/4
f 3/8/5 7/19/5 9/26/5
f 7/20/6 3/9/6 10/29/6
f 11/30/7 10/27/7 2/4/7
f 10/28/8 11/32/8 5/13/8
f 4/11/9 8/23/9 11/31/9
f 8/21/10 4/10/10 12/35/10
f 9/24/11 12/33/11 1/1/11
f 12/34/12 9/25/12 6/15/12
f 3/8/13 2/5/13 10/29/13
f 1/2/14 3/9/14 9/26/14
f 5/14/15 7/19/15 10/29/15
f 7/20/16 6/16/16 9/26/16
f 2/6/17 4/10/17 11/31/17
f 4/11/18 1/3/18 12/35/18
f 5/14/19 11/32/19 8/22/19
f 6/17/20 8/23/20 12/35/20
